# xmcd
#
# Track frame offsets: 
#        150
#        21121
#        42617
#        58724
#        79597
#        97371
#        122133
#        141046
#        164473
#        184628
#        216945
#        243637
#        260064
#        269026
#
# Disc length: 3820 seconds
#
# Revision: 2
# Processed by: cddbd v1.5.2PL0 Copyright (c) Steve Scherf et al.
# Submitted via: ExactAudioCopyFreeDBPlugin 1.0
#
DISCID=db0eea0e
DTITLE=Rory Gallagher - The Rory Gallagher Collection [Disc 1 of 2]
DYEAR=2012
DGENRE=Blues Rock
TTITLE0=Follow Me
TTITLE1=Moonchild
TTITLE2=Bought and Sold
TTITLE3=Laundromat
TTITLE4=Bad Penny
TTITLE5=Edged in Blue
TTITLE6=Brute Force and Ignorance [Live]
TTITLE7=I Fall Apart
TTITLE8=Loanshark Blues
TTITLE9=Who's That Coming
TTITLE10=As the Crow Flies [Live]
TTITLE11=Barley and Grape Rag
TTITLE12=Lonesome Highway Refraining
TTITLE13=Out on the Western Plain
EXTD=Location:  - UPC: 886979833821 - Catalogue number: 88697983382 - Lab
EXTD=el: Sony Music,Capo,Legacy,Camden Deluxe - ASIN: B005THRTP8 - Relea
EXTD=se Date: 2012 06 18 - Discogs: a373460,r6073796 - MUSICBRAINZ_ALBUM
EXTD=ID: 6ecc77a8-9efd-420c-80a5-3dfd14ceac47 - AMG:mn0000337631,mw0001
EXTD=136679,mw0002227381;
EXTT0=
EXTT1=
EXTT2=
EXTT3=
EXTT4=
EXTT5=
EXTT6=
EXTT7=
EXTT8=
EXTT9=
EXTT10=
EXTT11=
EXTT12=
EXTT13=
PLAYORDER=
